<svg width="100%" height="100%" viewBox="0 0 171 56" fill="none" xmlns="http://www.w3.org/2000/svg">
  <path d="M0.308594 55.0711V0.972061H9.37871L11.6268 22.8435H12.4021L14.8828 0.972061H23.7979V55.0711H17.2085V21.3751H16.4332L13.4874 45.7197H9.99887L7.67321 21.3751H6.898V55.0711H0.308594ZM26.9569 55.0711V0.972061H40.9107V7.77307H34.2439V24.0801H40.7559V30.8811H34.2439V48.27H40.9883V55.0711H26.9569ZM52.1486 55.844C49.5129 55.844 47.4457 55.2772 45.9467 54.1435C44.448 52.9586 43.4919 51.8766 43.0785 50.8977V5.14543C43.2852 4.6302 43.7246 3.98614 44.3962 3.21331C45.1199 2.44046 46.1276 1.74491 47.4196 1.12663C48.7119 0.508356 50.2881 0.199219 52.1486 0.199219C54.371 0.199219 56.2055 0.637165 57.6526 1.51305C59.0997 2.38894 60.1335 3.34211 60.7536 4.37257V22.0707H53.854V8.39136C53.8025 8.0307 53.6215 7.72155 53.3115 7.46395C53.0015 7.20632 52.6138 7.07752 52.1486 7.07752C51.2182 7.07752 50.6239 7.51547 50.3657 8.39136V47.5745C50.4172 47.8836 50.5982 48.1927 50.9082 48.5021C51.2182 48.7595 51.6319 48.8882 52.1486 48.8882C52.6654 48.8882 53.053 48.7595 53.3115 48.5021C53.6215 48.1927 53.8025 47.8836 53.854 47.5745V31.3447H52.071V24.8529H60.7536V51.6706C60.0817 52.7012 59.0482 53.6541 57.6526 54.53C56.2573 55.4059 54.4225 55.844 52.1486 55.844ZM78.5565 0.972061L81.9675 48.8882V55.0711H74.913L74.2927 39.6915H70.7268L69.9516 55.0711H63.1296V48.8882L66.6182 0.972061H78.5565ZM71.0368 32.8905H73.9826L72.9749 8.85508H72.1997L71.0368 32.8905ZM86.0184 55.1484V7.77307H81.3673V0.972061H97.9571V7.77307H93.3056V55.1484H86.0184ZM100.164 0.972061H110.475C111.818 0.972061 113.239 1.35848 114.738 2.13133C116.237 2.90417 117.297 3.98614 117.917 5.37726V26.785C117.297 28.1246 116.314 29.2066 114.971 30.031L118.149 48.8882V55.0711H111.715L108.381 31.4221H107.451V55.0711H100.164V0.972061ZM109.389 24.6983C110.164 24.6983 110.655 24.3377 110.862 23.6164V8.7005C110.655 8.0307 110.164 7.69581 109.389 7.69581H107.451V24.6983H109.389ZM129.747 55.844C127.886 55.844 126.284 55.5349 124.94 54.9164C123.648 54.2469 122.64 53.5254 121.917 52.7525C121.193 51.9283 120.78 51.3098 120.676 50.8977V5.14543C120.78 4.73323 121.193 4.14071 121.917 3.36788C122.64 2.54351 123.648 1.82219 124.94 1.20392C126.284 0.534119 127.886 0.199219 129.747 0.199219C131.607 0.199219 133.183 0.534119 134.475 1.20392C135.819 1.82219 136.827 2.54351 137.499 3.36788C138.222 4.14071 138.636 4.73323 138.739 5.14543V50.8977C138.636 51.3098 138.222 51.9283 137.499 52.7525C136.827 53.5254 135.819 54.2469 134.475 54.9164C133.183 55.5349 131.607 55.844 129.747 55.844ZM129.747 48.8882C130.212 48.8882 130.599 48.7595 130.91 48.5021C131.22 48.2444 131.4 47.9353 131.452 47.5745V8.46865C131.4 8.10799 131.22 7.79884 130.91 7.54124C130.599 7.28361 130.212 7.15481 129.747 7.15481C129.281 7.15481 128.894 7.28361 128.584 7.54124C128.274 7.79884 128.067 8.10799 127.964 8.46865V47.5745C128.067 47.9353 128.274 48.2444 128.584 48.5021C128.894 48.7595 129.281 48.8882 129.747 48.8882ZM141.726 55.0711V0.972061H149.324L153.975 31.8859H154.672V0.972061H161.339V55.0711H153.742L149.168 23.9255H148.393V55.0711H141.726ZM167.306 55.4575C165.704 55.4575 164.489 54.865 163.663 53.6801V48.3474C164.489 47.1624 165.704 46.5699 167.306 46.5699C168.908 46.5699 170.123 47.1624 170.95 48.3474V53.6801C170.123 54.865 168.908 55.4575 167.306 55.4575Z" fill="white" />
</svg>
  