<svg width="98" height="53" viewBox="0 0 98 53" fill="none" xmlns="http://www.w3.org/2000/svg">
  <path d="M4 23C2.067 23 0.5 24.567 0.5 26.5C0.5 28.433 2.067 30 4 30V23ZM96.4749 28.9749C97.8417 27.608 97.8417 25.392 96.4749 24.0251L74.201 1.75126C72.8342 0.384428 70.6181 0.384428 69.2513 1.75126C67.8844 3.1181 67.8844 5.33418 69.2513 6.70101L89.0502 26.5L69.2513 46.299C67.8844 47.6658 67.8844 49.8819 69.2513 51.2487C70.6181 52.6156 72.8342 52.6156 74.201 51.2487L96.4749 28.9749ZM4 30H94V23H4V30Z" fill="white"/>
</svg>
  