<?xml version="1.0" standalone="no"?>
<!DOCTYPE svg PUBLIC "-//W3C//DTD SVG 20010904//EN"
 "http://www.w3.org/TR/2001/REC-SVG-20010904/DTD/svg10.dtd">
<svg version="1.0" xmlns="http://www.w3.org/2000/svg"
 width="796.000000pt" height="796.000000pt" viewBox="0 0 796.000000 796.000000"
 preserveAspectRatio="xMidYMid meet">
<metadata>
Created by potrace 1.14, written by Peter Selinger 2001-2017
</metadata>
<g transform="translate(0.000000,796.000000) scale(0.100000,-0.100000)"
fill="#000000" stroke="none">
<path d="M4899 6716 c-2 -2 -26 -6 -54 -10 -236 -27 -487 -174 -621 -362 -58
-81 -74 -120 -64 -156 5 -15 6 -28 2 -28 -4 0 -7 -70 -7 -155 0 -85 3 -155 7
-155 4 0 5 -6 2 -14 -8 -22 -10 -1026 -2 -1026 4 0 5 -7 2 -15 -9 -22 -10
-225 -2 -225 4 0 5 -6 2 -14 -8 -22 -10 -1026 -2 -1026 4 0 5 -7 2 -15 -9 -23
-10 -225 -1 -225 5 0 5 -5 2 -10 -6 -9 -10 -748 -5 -775 1 -5 1 -14 0 -20 -1
-5 -2 -177 -2 -381 0 -435 -7 -399 104 -530 80 -95 201 -194 289 -236 54 -26
116 -51 134 -54 6 -1 33 -8 60 -14 89 -22 127 -25 295 -25 163 0 217 5 295 25
22 6 51 13 64 16 57 12 228 104 277 149 6 5 35 30 63 53 28 24 72 71 98 103
l46 60 1 1307 c1 719 -2 1314 -5 1322 -6 13 -62 15 -421 14 -227 -1 -416 -2
-419 -3 -11 -2 -6 -641 5 -640 6 1 46 1 89 0 l77 -1 0 -798 0 -799 -23 -43
c-62 -118 -256 -108 -305 15 -9 23 -12 485 -10 1971 l3 1940 25 37 c32 48 91
71 159 64 64 -7 104 -31 130 -77 21 -37 21 -46 21 -717 l0 -679 333 2 c182 0
334 2 337 3 4 1 5 1661 1 1732 -1 21 -65 102 -119 153 -123 114 -290 207 -411
231 -12 2 -31 7 -41 10 -10 3 -29 8 -42 11 -28 7 -362 16 -369 10z"/>
<path d="M4 6635 c-2 -5 -3 -1205 -2 -2665 l3 -2655 310 -1 c171 0 315 1 320
3 7 2 10 563 9 1657 l0 1654 23 5 c42 8 52 -11 58 -108 3 -49 7 -101 10 -115
2 -14 7 -50 9 -80 3 -30 8 -89 12 -130 3 -41 8 -86 9 -100 1 -14 6 -61 9 -105
4 -44 10 -98 13 -120 2 -22 6 -62 9 -90 2 -27 5 -72 8 -100 3 -27 8 -75 10
-105 10 -112 17 -176 21 -220 3 -25 7 -74 10 -110 6 -72 13 -144 20 -205 3
-22 7 -69 10 -105 3 -36 8 -83 10 -105 3 -22 7 -67 10 -100 5 -69 14 -162 21
-220 2 -22 6 -71 9 -110 4 -58 8 -98 14 -165 1 -3 78 -5 173 -5 157 0 171 2
174 18 1 10 5 46 9 80 5 58 8 76 19 158 3 20 8 62 11 95 6 54 11 95 20 164 2
14 7 52 10 85 4 33 9 74 11 90 2 17 6 53 9 80 3 28 8 61 10 75 2 14 6 54 10
90 3 36 8 76 10 90 5 30 13 87 20 155 3 28 8 66 10 86 3 20 8 56 10 80 6 60
15 137 21 179 2 19 6 55 9 80 3 25 7 61 10 80 7 50 15 118 20 170 8 77 16 144
20 170 2 14 7 50 10 80 3 30 8 66 10 80 9 61 19 156 17 162 -1 4 2 18 7 31 8
19 15 23 43 19 l33 -4 0 -1656 0 -1657 310 -1 c171 0 315 1 320 3 7 2 10 864
10 2666 l0 2662 -428 0 c-277 0 -431 -3 -437 -10 -4 -5 -11 -39 -14 -75 -8
-77 -12 -115 -21 -195 -4 -33 -8 -71 -10 -85 -1 -14 -5 -50 -9 -80 -3 -30 -9
-77 -12 -105 -3 -27 -7 -68 -10 -90 -2 -22 -6 -65 -9 -95 -3 -30 -8 -71 -11
-90 -3 -19 -8 -55 -10 -80 -2 -25 -6 -63 -8 -85 -5 -36 -14 -119 -21 -185 -3
-37 -16 -151 -21 -185 -2 -16 -6 -55 -9 -85 -5 -54 -11 -98 -21 -171 -2 -20
-7 -60 -9 -90 -3 -30 -7 -67 -10 -84 -2 -16 -7 -59 -10 -95 -4 -36 -8 -78 -10
-95 -2 -16 -7 -59 -11 -95 -3 -36 -8 -68 -11 -72 -6 -11 -61 -10 -68 1 -5 9
-8 36 -19 161 -3 25 -7 70 -11 100 -8 72 -13 121 -20 200 -3 36 -8 83 -10 105
-3 22 -7 65 -10 95 -2 30 -7 75 -10 100 -3 25 -7 70 -10 100 -3 30 -8 75 -10
100 -11 90 -15 136 -19 185 -3 28 -7 70 -10 95 -4 25 -8 70 -11 100 -2 30 -6
73 -9 95 -2 22 -7 72 -11 110 -3 39 -8 81 -10 95 -2 14 -6 54 -10 90 -3 36 -7
83 -10 105 -2 22 -7 65 -9 95 -14 148 -17 176 -21 195 -4 20 -12 20 -441 20
-284 0 -438 -3 -440 -10z"/>
<path d="M2599 6639 c-5 -3 -8 -1082 -7 -2665 l3 -2659 680 0 680 0 2 90 c3
105 3 154 2 175 0 8 0 51 0 95 1 44 2 133 2 197 l0 117 -228 0 c-125 0 -274 0
-329 1 l-101 0 1 853 1 852 305 0 c168 1 310 4 315 7 7 4 10 120 9 330 -1 177
-2 326 -3 331 0 4 -142 7 -314 7 l-314 0 0 800 0 800 36 0 c20 1 165 1 324 0
l287 0 0 337 0 338 -671 0 c-369 0 -675 -3 -680 -6z"/>
<path d="M6458 6639 c-10 -7 -12 -22 -23 -184 -3 -49 -8 -114 -10 -144 -3 -30
-8 -93 -11 -140 -3 -47 -7 -108 -9 -136 -2 -27 -6 -90 -10 -140 -3 -49 -8
-115 -10 -145 -3 -30 -7 -93 -10 -140 -3 -47 -8 -112 -11 -145 -3 -33 -7 -89
-9 -125 -2 -36 -6 -99 -9 -140 -4 -41 -9 -107 -12 -146 -3 -39 -7 -98 -9 -130
-5 -72 -13 -198 -20 -279 -3 -33 -7 -94 -10 -135 -3 -41 -7 -106 -10 -145 -3
-38 -7 -106 -10 -150 -3 -44 -7 -102 -10 -130 -3 -27 -8 -90 -11 -140 -10
-158 -20 -296 -29 -410 -4 -53 -8 -115 -20 -285 -3 -41 -6 -83 -21 -285 -2
-38 -7 -95 -9 -125 -3 -30 -7 -91 -10 -135 -2 -44 -7 -107 -9 -140 -5 -61 -11
-144 -22 -290 -3 -44 -8 -109 -11 -145 -3 -36 -7 -234 -10 -440 l-5 -375 333
0 c324 0 332 1 335 20 3 22 12 185 20 354 2 58 6 144 8 191 2 47 7 137 10 200
4 63 9 156 11 205 10 213 17 344 20 405 2 36 4 82 5 103 l0 37 173 -2 172 -3
3 -70 c1 -38 4 -110 6 -160 3 -49 7 -160 10 -245 4 -85 9 -211 12 -280 3 -69
7 -172 9 -230 2 -58 7 -177 11 -265 4 -88 8 -178 9 -200 1 -22 2 -45 3 -50 3
-15 671 -14 680 2 9 14 7 617 -2 748 -4 55 -9 123 -11 150 -2 28 -6 86 -10
130 -6 91 -13 186 -20 295 -9 130 -14 203 -20 280 -3 41 -8 104 -10 140 -3 36
-7 97 -10 135 -3 39 -7 106 -10 150 -3 44 -7 105 -10 135 -4 55 -11 155 -21
305 -3 44 -7 103 -9 130 -3 28 -7 91 -10 140 -3 50 -7 113 -10 141 -6 74 -16
209 -20 289 -2 39 -4 70 -5 70 -1 0 -3 27 -5 60 -2 33 -6 101 -10 150 -4 50
-8 118 -10 151 -3 34 -7 92 -10 130 -2 38 -7 103 -10 144 -3 41 -8 107 -10
145 -3 39 -7 99 -10 135 -10 155 -20 299 -29 420 -4 47 -8 119 -11 160 -2 41
-7 104 -10 140 -3 36 -7 99 -10 140 -3 41 -8 109 -11 152 -3 42 -7 93 -8 115
l-3 38 -572 0 c-315 0 -577 -3 -583 -6z m613 -859 c1 -47 3 -107 5 -135 1 -27
5 -117 8 -200 4 -82 8 -190 11 -240 6 -113 15 -343 21 -500 2 -66 6 -167 8
-225 3 -58 7 -168 10 -245 13 -313 16 -385 22 -500 3 -66 6 -145 7 -176 l2
-56 -137 0 c-89 0 -139 4 -141 11 -3 6 -3 34 -1 61 1 28 5 111 9 185 3 74 8
178 10 230 2 52 7 145 10 205 6 143 14 295 20 420 7 121 14 269 21 430 2 66 7
156 9 200 5 96 13 252 21 435 5 114 10 185 13 185 1 0 17 0 36 0 l35 0 1 -85z"/>
</g>
</svg>
